<?xml version="1.0" encoding="utf-8"?>
<!-- Generator: Adobe Illustrator 25.2.0, SVG Export Plug-In . SVG Version: 6.00 Build 0)  -->
<svg version="1.1"
	 id="icon" xmlns:cc="http://creativecommons.org/ns#" xmlns:dc="http://purl.org/dc/elements/1.1/" xmlns:rdf="http://www.w3.org/1999/02/22-rdf-syntax-ns#" xmlns:svg="http://www.w3.org/2000/svg"
	 xmlns="http://www.w3.org/2000/svg" xmlns:xlink="http://www.w3.org/1999/xlink" x="0px" y="0px" width="16px" height="16px"
	 viewBox="0 0 16 16" style="enable-background:new 0 0 16 16;" xml:space="preserve">
<style type="text/css">
	.st0{fill:#FEAB22;}
</style>
<path class="st0" d="M7.3520193,0.0259964c1.9918575-0.1667432,4.0362749,0.4458569,5.5985851,1.6928061
	c1.790678,1.3955685,2.9306936,3.5849795,3.0358143,5.8541374c0.1413698,2.3452797-0.8282785,4.7249956-2.5645838,6.3072443
	c-1.7109289,1.5985603-4.1486435,2.3688412-6.4667368,2.0498543c-2.3507171-0.2899885-4.5238161-1.7036819-5.759891-3.720912
	c-1.3158216-2.0897274-1.5604992-4.8029294-0.6579108-7.0992742C1.5957536,2.2987792,4.3524537,0.2326129,7.3520193,0.0259964
	 M5.775209,3.4986053c-0.0018125,3.6502266-0.0036249,7.2986417,0,10.9488678c0.5926628,0.0018129,1.1853266,0.0018129,1.7761779,0
	c-0.0036249-1.1363907,0.0199366-2.2727833-0.0144997-3.407361c0.5709143,0.405983,1.2161379,0.7358446,1.9211721,0.8192158
	c1.3357573,0.1812429,2.7150145-0.4639807,3.5088577-1.5387497c1.0222082-1.3357582,1.1345778-3.2804918,0.3008623-4.7376828
	c-0.6144123-1.1146421-1.7888641-1.9121099-3.0648136-2.0154181c-0.9605856-0.088809-1.9139214,0.2646141-2.6642656,0.8500276
	c0.0072489-0.3062997,0.0126867-0.6125998,0.0181236-0.9189C6.9623485,3.496793,6.3696847,3.496793,5.775209,3.4986053z"/>
<path class="st0" d="M8.9850159,5.6318312c1.1418285-0.5709147,2.4268389,0.4331698,2.5790825,1.5949349
	c0.3407364,1.3321338-0.7684689,3.0630002-2.2655325,2.6950784C7.4208918,9.4306765,7.2595859,6.4311113,8.9850159,5.6318312z"/>
</svg>
